<?xml version="1.0" encoding="UTF-8"?>
<!DOCTYPE svg PUBLIC "-//W3C//DTD SVG 1.1//EN" "http://www.w3.org/Graphics/SVG/1.1/DTD/svg11.dtd">
<svg xmlns="http://www.w3.org/2000/svg" version="1.1" width="412px" height="412px" style="shape-rendering:geometricPrecision; text-rendering:geometricPrecision; image-rendering:optimizeQuality; fill-rule:evenodd; clip-rule:evenodd" xmlns:xlink="http://www.w3.org/1999/xlink">
<g><path style="opacity:1" fill="#c1c1c1" d="M 263.5,35.5 C 262.373,34.8783 261.373,34.045 260.5,33C 223.167,32.3333 185.833,32.3333 148.5,33C 167.761,65.1102 186.428,97.6102 204.5,130.5C 185.409,162.342 167.076,194.675 149.5,227.5C 148.662,227.842 148.328,228.508 148.5,229.5C 138.598,213.74 129.265,197.573 120.5,181C 101.662,180.171 82.9955,180.338 64.5,181.5C 63.8333,181.5 63.5,181.167 63.5,180.5C 63.8417,179.662 64.5084,179.328 65.5,179.5C 83.5123,179.833 101.512,179.5 119.5,178.5C 118.388,176.581 117.054,174.914 115.5,173.5C 112.665,169.836 110.332,165.836 108.5,161.5C 106.236,154.978 102.903,148.978 98.5,143.5C 95.2682,139.539 92.9348,135.039 91.5,130C 94.4811,123.86 97.8144,118.026 101.5,112.5C 102.376,112.631 103.043,112.298 103.5,111.5C 104.526,108.214 106.192,105.381 108.5,103C 109.274,100.846 109.941,98.6792 110.5,96.5C 110.328,95.5084 110.662,94.8417 111.5,94.5C 113.588,92.6644 114.921,90.3311 115.5,87.5C 119.509,82.8227 122.509,77.4894 124.5,71.5C 131.571,61.0376 137.904,50.0376 143.5,38.5C 144.423,35.1617 146.423,32.6617 149.5,31C 186.835,30.7345 224.169,31.0678 261.5,32C 262.823,32.8159 263.489,33.9826 263.5,35.5 Z"/></g>
<g><path style="opacity:1" fill="#959595" d="M 263.5,35.5 C 264.674,36.5137 265.34,37.847 265.5,39.5C 265.427,41.0269 266.094,42.0269 267.5,42.5C 268.674,43.5137 269.34,44.847 269.5,46.5C 269.427,48.0269 270.094,49.0269 271.5,49.5C 272.674,50.5137 273.34,51.847 273.5,53.5C 274.079,56.3311 275.412,58.6644 277.5,60.5C 277.75,62.674 278.75,64.3406 280.5,65.5C 281.338,65.8417 281.672,66.5084 281.5,67.5C 281.427,69.0269 282.094,70.0269 283.5,70.5C 284.674,71.5137 285.34,72.847 285.5,74.5C 285.427,76.0269 286.094,77.0269 287.5,77.5C 288.674,78.5137 289.34,79.847 289.5,81.5C 289.75,83.674 290.75,85.3406 292.5,86.5C 293.338,86.8417 293.672,87.5084 293.5,88.5C 294.079,91.3311 295.412,93.6644 297.5,95.5C 298.338,95.8417 298.672,96.5084 298.5,97.5C 298.427,99.0269 299.094,100.027 300.5,100.5C 300.115,103.89 301.448,106.223 304.5,107.5C 305.674,108.514 306.34,109.847 306.5,111.5C 306.427,113.027 307.094,114.027 308.5,114.5C 309.674,115.514 310.34,116.847 310.5,118.5C 310.427,120.027 311.094,121.027 312.5,121.5C 314.392,124.276 316.059,127.276 317.5,130.5C 317.376,131.107 317.043,131.44 316.5,131.5C 279.337,130.502 242.004,130.168 204.5,130.5C 186.428,97.6102 167.761,65.1102 148.5,33C 185.833,32.3333 223.167,32.3333 260.5,33C 261.373,34.045 262.373,34.8783 263.5,35.5 Z"/></g>
<g><path style="opacity:0.247" fill="#ededed" d="M 265.5,39.5 C 266.906,39.9731 267.573,40.9731 267.5,42.5C 266.094,42.0269 265.427,41.0269 265.5,39.5 Z"/></g>
<g><path style="opacity:0.29" fill="#efefef" d="M 143.5,38.5 C 137.904,50.0376 131.571,61.0376 124.5,71.5C 130.079,60.0022 136.412,49.0022 143.5,38.5 Z"/></g>
<g><path style="opacity:0.239" fill="#e9e9e9" d="M 269.5,46.5 C 270.906,46.9731 271.573,47.9731 271.5,49.5C 270.094,49.0269 269.427,48.0269 269.5,46.5 Z"/></g>
<g><path style="opacity:0.224" fill="#e8e8e8" d="M 273.5,53.5 C 275.588,55.3356 276.921,57.6689 277.5,60.5C 275.412,58.6644 274.079,56.3311 273.5,53.5 Z"/></g>
<g><path style="opacity:0.22" fill="#eeeeee" d="M 277.5,60.5 C 279.25,61.6594 280.25,63.326 280.5,65.5C 278.75,64.3406 277.75,62.674 277.5,60.5 Z"/></g>
<g><path style="opacity:0.243" fill="#efefef" d="M 281.5,67.5 C 282.906,67.9731 283.573,68.9731 283.5,70.5C 282.094,70.0269 281.427,69.0269 281.5,67.5 Z"/></g>
<g><path style="opacity:0.224" fill="#ececec" d="M 285.5,74.5 C 286.906,74.9731 287.573,75.9731 287.5,77.5C 286.094,77.0269 285.427,76.0269 285.5,74.5 Z"/></g>
<g><path style="opacity:0.267" fill="#f1f1f1" d="M 124.5,71.5 C 122.509,77.4894 119.509,82.8227 115.5,87.5C 117.707,81.6495 120.707,76.3162 124.5,71.5 Z"/></g>
<g><path style="opacity:0.227" fill="#e8e8e8" d="M 289.5,81.5 C 291.25,82.6594 292.25,84.326 292.5,86.5C 290.75,85.3406 289.75,83.674 289.5,81.5 Z"/></g>
<g><path style="opacity:0.286" fill="#f3f3f3" d="M 115.5,87.5 C 114.921,90.3311 113.588,92.6644 111.5,94.5C 112.079,91.6689 113.412,89.3356 115.5,87.5 Z"/></g>
<g><path style="opacity:0.239" fill="#ebebeb" d="M 293.5,88.5 C 295.588,90.3356 296.921,92.6689 297.5,95.5C 295.412,93.6644 294.079,91.3311 293.5,88.5 Z"/></g>
<g><path style="opacity:0.239" fill="#ececec" d="M 298.5,97.5 C 299.906,97.9731 300.573,98.9731 300.5,100.5C 299.094,100.027 298.427,99.0269 298.5,97.5 Z"/></g>
<g><path style="opacity:0.784" fill="#dedede" d="M 110.5,96.5 C 109.941,98.6792 109.274,100.846 108.5,103C 106.192,105.381 104.526,108.214 103.5,111.5C 103.043,112.298 102.376,112.631 101.5,112.5C 103.707,106.65 106.707,101.316 110.5,96.5 Z"/></g>
<g><path style="opacity:0.92" fill="#c6c6c6" d="M 300.5,100.5 C 302.083,102.663 303.416,104.996 304.5,107.5C 301.448,106.223 300.115,103.89 300.5,100.5 Z"/></g>
<g><path style="opacity:0.22" fill="#e5e5e5" d="M 306.5,111.5 C 307.906,111.973 308.573,112.973 308.5,114.5C 307.094,114.027 306.427,113.027 306.5,111.5 Z"/></g>
<g><path style="opacity:0.176" fill="#e7e7e7" d="M 310.5,118.5 C 311.906,118.973 312.573,119.973 312.5,121.5C 311.094,121.027 310.427,120.027 310.5,118.5 Z"/></g>
<g><path style="opacity:1" fill="#707070" d="M 204.5,130.5 C 242.004,130.168 279.337,130.502 316.5,131.5C 316.5,131.833 316.5,132.167 316.5,132.5C 310.493,140.505 305.493,149.172 301.5,158.5C 301.672,159.492 301.338,160.158 300.5,160.5C 299.094,160.973 298.427,161.973 298.5,163.5C 298.672,164.492 298.338,165.158 297.5,165.5C 294.377,168.976 292.043,172.976 290.5,177.5C 289.833,177.5 289.5,177.833 289.5,178.5C 270.213,178.818 251.213,179.818 232.5,181.5C 222.93,196.966 213.596,212.632 204.5,228.5C 185.992,228.83 167.659,228.497 149.5,227.5C 167.076,194.675 185.409,162.342 204.5,130.5 Z"/></g>
<g><path style="opacity:0.396" fill="#e7e7e7" d="M 98.5,143.5 C 102.903,148.978 106.236,154.978 108.5,161.5C 104.663,155.83 101.33,149.83 98.5,143.5 Z"/></g>
<g><path style="opacity:0.235" fill="#dedede" d="M 316.5,132.5 C 312.291,141.688 307.291,150.355 301.5,158.5C 305.493,149.172 310.493,140.505 316.5,132.5 Z"/></g>
<g><path style="opacity:0.204" fill="#e5e5e5" d="M 300.5,160.5 C 300.573,162.027 299.906,163.027 298.5,163.5C 298.427,161.973 299.094,160.973 300.5,160.5 Z"/></g>
<g><path style="opacity:0.333" fill="#dadada" d="M 297.5,165.5 C 295.934,169.728 293.934,173.728 291.5,177.5C 291.167,177.5 290.833,177.5 290.5,177.5C 292.043,172.976 294.377,168.976 297.5,165.5 Z"/></g>
<g><path style="opacity:0.192" fill="#fbfbfb" d="M 290.5,177.5 C 290.833,177.5 291.167,177.5 291.5,177.5C 296.167,178.167 300.833,178.833 305.5,179.5C 300.167,179.5 294.833,179.5 289.5,179.5C 289.5,179.167 289.5,178.833 289.5,178.5C 289.5,177.833 289.833,177.5 290.5,177.5 Z"/></g>
<g><path style="opacity:0.091" fill="#fcfcfc" d="M 115.5,173.5 C 117.054,174.914 118.388,176.581 119.5,178.5C 101.512,179.5 83.5123,179.833 65.5,179.5C 82.6618,178.668 99.9952,178.168 117.5,178C 116.418,176.67 115.751,175.17 115.5,173.5 Z"/></g>
<g><path style="opacity:0.43" fill="#bdbdbd" d="M 345.5,180.5 C 326.659,180.83 307.993,180.497 289.5,179.5C 294.833,179.5 300.167,179.5 305.5,179.5C 307.405,179.407 309.238,179.074 311,178.5C 322.598,179.157 334.098,179.824 345.5,180.5 Z"/></g>
<g><path style="opacity:1" fill="#959595" d="M 64.5,181.5 C 82.9955,180.338 101.662,180.171 120.5,181C 129.265,197.573 138.598,213.74 148.5,229.5C 167.167,229.5 185.833,229.5 204.5,229.5C 213.785,245.743 222.785,262.076 231.5,278.5C 194.094,278.173 156.761,278.507 119.5,279.5C 119.245,276.984 118.411,274.65 117,272.5C 98.9357,242.356 81.4357,212.022 64.5,181.5 Z"/></g>
<g><path style="opacity:0.999" fill="#959595" d="M 289.5,178.5 C 289.5,178.833 289.5,179.167 289.5,179.5C 307.993,180.497 326.659,180.83 345.5,180.5C 346.34,182.853 347.674,184.853 349.5,186.5C 349.75,188.674 350.75,190.341 352.5,191.5C 353.674,192.514 354.34,193.847 354.5,195.5C 354.427,197.027 355.094,198.027 356.5,198.5C 357.338,198.842 357.672,199.508 357.5,200.5C 357.427,202.027 358.094,203.027 359.5,203.5C 360.674,204.514 361.34,205.847 361.5,207.5C 361.427,209.027 362.094,210.027 363.5,210.5C 364.674,211.514 365.34,212.847 365.5,214.5C 365.75,216.674 366.75,218.341 368.5,219.5C 369.338,219.842 369.672,220.508 369.5,221.5C 369.75,223.674 370.75,225.341 372.5,226.5C 373.674,227.514 374.34,228.847 374.5,230.5C 374.427,232.027 375.094,233.027 376.5,233.5C 377.338,233.842 377.672,234.508 377.5,235.5C 377.427,237.027 378.094,238.027 379.5,238.5C 380.674,239.514 381.34,240.847 381.5,242.5C 381.427,244.027 382.094,245.027 383.5,245.5C 384.674,246.514 385.34,247.847 385.5,249.5C 386.079,252.331 387.412,254.664 389.5,256.5C 390.674,257.514 391.34,258.847 391.5,260.5C 391.427,262.027 392.094,263.027 393.5,263.5C 394.674,264.514 395.34,265.847 395.5,267.5C 395.427,269.027 396.094,270.027 397.5,270.5C 397.493,273.645 398.493,276.311 400.5,278.5C 363.5,278.5 326.5,278.5 289.5,278.5C 270.725,247.284 252.725,215.617 235.5,183.5C 234.643,182.575 233.643,181.908 232.5,181.5C 251.213,179.818 270.213,178.818 289.5,178.5 Z"/></g>
<g><path style="opacity:1" fill="#c1c1c1" d="M 63.5,180.5 C 63.5,181.167 63.8333,181.5 64.5,181.5C 81.4357,212.022 98.9357,242.356 117,272.5C 118.411,274.65 119.245,276.984 119.5,279.5C 101.139,311.517 82.8056,343.517 64.5,375.5C 63.6618,375.842 63.3284,376.508 63.5,377.5C 58.3777,370.693 54.0444,363.36 50.5,355.5C 48.8412,350.173 46.1745,345.507 42.5,341.5C 38.442,335.43 34.7753,329.097 31.5,322.5C 28.2917,314.98 24.2917,307.98 19.5,301.5C 18.6618,301.158 18.3284,300.492 18.5,299.5C 18.1911,294.218 15.8577,290.218 11.5,287.5C 10.5716,284.477 9.23827,281.643 7.5,279C 9.51338,276.128 10.8467,272.962 11.5,269.5C 12.0787,266.669 13.412,264.336 15.5,262.5C 17.588,260.664 18.9213,258.331 19.5,255.5C 23.1745,251.493 25.8412,246.827 27.5,241.5C 29.8913,239.065 31.558,236.065 32.5,232.5C 32.7497,230.326 33.7497,228.659 35.5,227.5C 37.588,225.664 38.9213,223.331 39.5,220.5C 42.669,216.167 45.3357,211.5 47.5,206.5C 49.4971,204.283 51.4971,201.95 53.5,199.5C 54.3094,197.929 54.6427,196.262 54.5,194.5C 56.3068,190.886 58.1401,187.22 60,183.5C 60.7589,181.937 61.9256,180.937 63.5,180.5 Z"/></g>
<g><path style="opacity:0.239" fill="#e0e0e0" d="M 345.5,180.5 C 347.796,181.733 349.13,183.733 349.5,186.5C 347.674,184.853 346.34,182.853 345.5,180.5 Z"/></g>
<g><path style="opacity:1" fill="#c0c0c0" d="M 232.5,181.5 C 233.643,181.908 234.643,182.575 235.5,183.5C 252.725,215.617 270.725,247.284 289.5,278.5C 270.678,310.134 252.345,342.134 234.5,374.5C 233.596,375.209 233.263,376.209 233.5,377.5C 232.357,377.092 231.357,376.425 230.5,375.5C 226.042,368.386 222.042,361.052 218.5,353.5C 217.921,350.669 216.588,348.336 214.5,346.5C 213.921,343.669 212.588,341.336 210.5,339.5C 208.44,336.76 206.774,333.76 205.5,330.5C 205.5,329.167 204.833,328.5 203.5,328.5C 212.137,312.565 221.304,296.898 231,281.5C 231.483,280.552 231.649,279.552 231.5,278.5C 222.785,262.076 213.785,245.743 204.5,229.5C 204.5,229.167 204.5,228.833 204.5,228.5C 213.596,212.632 222.93,196.966 232.5,181.5 Z"/></g>
<g><path style="opacity:0.22" fill="#eaeaea" d="M 349.5,186.5 C 351.25,187.659 352.25,189.326 352.5,191.5C 350.75,190.341 349.75,188.674 349.5,186.5 Z"/></g>
<g><path style="opacity:0.278" fill="#eaeaea" d="M 354.5,195.5 C 355.906,195.973 356.573,196.973 356.5,198.5C 355.094,198.027 354.427,197.027 354.5,195.5 Z"/></g>
<g><path style="opacity:0.239" fill="#eeeeee" d="M 357.5,200.5 C 358.906,200.973 359.573,201.973 359.5,203.5C 358.094,203.027 357.427,202.027 357.5,200.5 Z"/></g>
<g><path style="opacity:0.78" fill="#e0e0e0" d="M 54.5,194.5 C 54.6427,196.262 54.3094,197.929 53.5,199.5C 51.4971,201.95 49.4971,204.283 47.5,206.5C 49.0435,201.976 51.3768,197.976 54.5,194.5 Z"/></g>
<g><path style="opacity:0.243" fill="#ececec" d="M 361.5,207.5 C 362.906,207.973 363.573,208.973 363.5,210.5C 362.094,210.027 361.427,209.027 361.5,207.5 Z"/></g>
<g><path style="opacity:0.243" fill="#e8e8e8" d="M 365.5,214.5 C 367.25,215.659 368.25,217.326 368.5,219.5C 366.75,218.341 365.75,216.674 365.5,214.5 Z"/></g>
<g><path style="opacity:0.337" fill="#f1f1f1" d="M 47.5,206.5 C 45.3357,211.5 42.669,216.167 39.5,220.5C 41.1588,215.173 43.8255,210.507 47.5,206.5 Z"/></g>
<g><path style="opacity:0.451" fill="#f4f4f4" d="M 39.5,220.5 C 38.9213,223.331 37.588,225.664 35.5,227.5C 36.0787,224.669 37.412,222.336 39.5,220.5 Z"/></g>
<g><path style="opacity:0.212" fill="#ededed" d="M 369.5,221.5 C 371.25,222.659 372.25,224.326 372.5,226.5C 370.75,225.341 369.75,223.674 369.5,221.5 Z"/></g>
<g><path style="opacity:1" fill="#7f7f7f" d="M 149.5,227.5 C 167.659,228.497 185.992,228.83 204.5,228.5C 204.5,228.833 204.5,229.167 204.5,229.5C 185.833,229.5 167.167,229.5 148.5,229.5C 148.328,228.508 148.662,227.842 149.5,227.5 Z"/></g>
<g><path style="opacity:0.29" fill="#e9e9e9" d="M 374.5,230.5 C 375.906,230.973 376.573,231.973 376.5,233.5C 375.094,233.027 374.427,232.027 374.5,230.5 Z"/></g>
<g><path style="opacity:0.282" fill="#ededed" d="M 32.5,232.5 C 31.558,236.065 29.8913,239.065 27.5,241.5C 28.4097,238.008 30.0764,235.008 32.5,232.5 Z"/></g>
<g><path style="opacity:0.239" fill="#ececec" d="M 377.5,235.5 C 378.906,235.973 379.573,236.973 379.5,238.5C 378.094,238.027 377.427,237.027 377.5,235.5 Z"/></g>
<g><path style="opacity:0.22" fill="#ebebeb" d="M 381.5,242.5 C 382.906,242.973 383.573,243.973 383.5,245.5C 382.094,245.027 381.427,244.027 381.5,242.5 Z"/></g>
<g><path style="opacity:0.212" fill="#e6e6e6" d="M 385.5,249.5 C 387.588,251.336 388.921,253.669 389.5,256.5C 387.412,254.664 386.079,252.331 385.5,249.5 Z"/></g>
<g><path style="opacity:0.31" fill="#f1f1f1" d="M 27.5,241.5 C 25.8412,246.827 23.1745,251.493 19.5,255.5C 21.6643,250.5 24.331,245.833 27.5,241.5 Z"/></g>
<g><path style="opacity:0.318" fill="#f3f3f3" d="M 19.5,255.5 C 18.9213,258.331 17.588,260.664 15.5,262.5C 16.0787,259.669 17.412,257.336 19.5,255.5 Z"/></g>
<g><path style="opacity:0.286" fill="#e5e5e5" d="M 391.5,260.5 C 392.906,260.973 393.573,261.973 393.5,263.5C 392.094,263.027 391.427,262.027 391.5,260.5 Z"/></g>
<g><path style="opacity:0.275" fill="#dfdfdf" d="M 395.5,267.5 C 396.906,267.973 397.573,268.973 397.5,270.5C 396.094,270.027 395.427,269.027 395.5,267.5 Z"/></g>
<g><path style="opacity:0.894" fill="#bebebe" d="M 397.5,270.5 C 400.217,273.237 401.55,276.57 401.5,280.5C 401.167,280.5 400.833,280.5 400.5,280.5C 400.5,279.833 400.5,279.167 400.5,278.5C 398.493,276.311 397.493,273.645 397.5,270.5 Z"/></g>
<g><path style="opacity:0.404" fill="#ececec" d="M 11.5,269.5 C 10.8467,272.962 9.51338,276.128 7.5,279C 9.23827,281.643 10.5716,284.477 11.5,287.5C 4.83333,281.5 4.83333,275.5 11.5,269.5 Z"/></g>
<g><path style="opacity:1" fill="#707070" d="M 231.5,278.5 C 231.649,279.552 231.483,280.552 231,281.5C 221.304,296.898 212.137,312.565 203.5,328.5C 198.312,336.875 193.645,345.542 189.5,354.5C 189.672,355.492 189.338,356.158 188.5,356.5C 187.094,356.973 186.427,357.973 186.5,359.5C 186.672,360.492 186.338,361.158 185.5,361.5C 183.75,362.659 182.75,364.326 182.5,366.5C 180.75,367.659 179.75,369.326 179.5,371.5C 179.672,372.492 179.338,373.158 178.5,373.5C 177.094,373.973 176.427,374.973 176.5,376.5C 176.167,376.5 175.833,376.5 175.5,376.5C 138.33,376.832 101.33,376.498 64.5,375.5C 82.8056,343.517 101.139,311.517 119.5,279.5C 156.761,278.507 194.094,278.173 231.5,278.5 Z"/></g>
<g><path style="opacity:1" fill="#707070" d="M 289.5,278.5 C 326.5,278.5 363.5,278.5 400.5,278.5C 400.5,279.167 400.5,279.833 400.5,280.5C 398.659,282.849 397.326,285.515 396.5,288.5C 394.75,289.659 393.75,291.326 393.5,293.5C 393.672,294.492 393.338,295.158 392.5,295.5C 391.094,295.973 390.427,296.973 390.5,298.5C 390.672,299.492 390.338,300.158 389.5,300.5C 384.745,307.004 380.745,314.004 377.5,321.5C 377.672,322.492 377.338,323.158 376.5,323.5C 374.75,324.659 373.75,326.326 373.5,328.5C 368.745,335.004 364.745,342.004 361.5,349.5C 361.672,350.492 361.338,351.158 360.5,351.5C 358.75,352.659 357.75,354.326 357.5,356.5C 357.672,357.492 357.338,358.158 356.5,358.5C 355.094,358.973 354.427,359.973 354.5,361.5C 354.672,362.492 354.338,363.158 353.5,363.5C 350.095,367.295 347.429,371.628 345.5,376.5C 308.152,377.16 271.152,376.494 234.5,374.5C 252.345,342.134 270.678,310.134 289.5,278.5 Z"/></g>
<g><path style="opacity:0.165" fill="#e7e7e7" d="M 400.5,280.5 C 400.833,280.5 401.167,280.5 401.5,280.5C 400.32,283.54 398.653,286.206 396.5,288.5C 397.326,285.515 398.659,282.849 400.5,280.5 Z"/></g>
<g><path style="opacity:0.259" fill="#e5e5e5" d="M 396.5,288.5 C 396.25,290.674 395.25,292.341 393.5,293.5C 393.75,291.326 394.75,289.659 396.5,288.5 Z"/></g>
<g><path style="opacity:0.173" fill="#e9e9e9" d="M 11.5,287.5 C 15.8577,290.218 18.1911,294.218 18.5,299.5C 15.3768,296.024 13.0435,292.024 11.5,287.5 Z"/></g>
<g><path style="opacity:0.231" fill="#e8e8e8" d="M 392.5,295.5 C 392.573,297.027 391.906,298.027 390.5,298.5C 390.427,296.973 391.094,295.973 392.5,295.5 Z"/></g>
<g><path style="opacity:0.247" fill="#dddddd" d="M 389.5,300.5 C 386.255,307.996 382.255,314.996 377.5,321.5C 380.745,314.004 384.745,307.004 389.5,300.5 Z"/></g>
<g><path style="opacity:0.365" fill="#efefef" d="M 19.5,301.5 C 24.2917,307.98 28.2917,314.98 31.5,322.5C 26.7448,315.996 22.7448,308.996 19.5,301.5 Z"/></g>
<g><path style="opacity:0.231" fill="#e8e8e8" d="M 376.5,323.5 C 376.25,325.674 375.25,327.341 373.5,328.5C 373.75,326.326 374.75,324.659 376.5,323.5 Z"/></g>
<g><path style="opacity:0.286" fill="#dddddd" d="M 373.5,328.5 C 370.255,335.996 366.255,342.996 361.5,349.5C 364.745,342.004 368.745,335.004 373.5,328.5 Z"/></g>
<g><path style="opacity:0.263" fill="#ededed" d="M 210.5,339.5 C 212.588,341.336 213.921,343.669 214.5,346.5C 212.412,344.664 211.079,342.331 210.5,339.5 Z"/></g>
<g><path style="opacity:0.396" fill="#ebebeb" d="M 42.5,341.5 C 46.1745,345.507 48.8412,350.173 50.5,355.5C 46.8255,351.493 44.1588,346.827 42.5,341.5 Z"/></g>
<g><path style="opacity:0.282" fill="#ececec" d="M 214.5,346.5 C 216.588,348.336 217.921,350.669 218.5,353.5C 216.412,351.664 215.079,349.331 214.5,346.5 Z"/></g>
<g><path style="opacity:0.255" fill="#e0e0e0" d="M 203.5,328.5 C 204.833,328.5 205.5,329.167 205.5,330.5C 204.624,330.369 203.957,330.702 203.5,331.5C 199.059,339.397 194.392,347.064 189.5,354.5C 193.645,345.542 198.312,336.875 203.5,328.5 Z"/></g>
<g><path style="opacity:0.239" fill="#e5e5e5" d="M 360.5,351.5 C 360.25,353.674 359.25,355.341 357.5,356.5C 357.75,354.326 358.75,352.659 360.5,351.5 Z"/></g>
<g><path style="opacity:0.208" fill="#e7e7e7" d="M 188.5,356.5 C 188.573,358.027 187.906,359.027 186.5,359.5C 186.427,357.973 187.094,356.973 188.5,356.5 Z"/></g>
<g><path style="opacity:0.235" fill="#e6e6e6" d="M 356.5,358.5 C 356.573,360.027 355.906,361.027 354.5,361.5C 354.427,359.973 355.094,358.973 356.5,358.5 Z"/></g>
<g><path style="opacity:0.271" fill="#dbdbdb" d="M 185.5,361.5 C 185.25,363.674 184.25,365.341 182.5,366.5C 182.75,364.326 183.75,362.659 185.5,361.5 Z"/></g>
<g><path style="opacity:0.282" fill="#cfcfcf" d="M 182.5,366.5 C 182.25,368.674 181.25,370.341 179.5,371.5C 179.75,369.326 180.75,367.659 182.5,366.5 Z"/></g>
<g><path style="opacity:0.31" fill="#dbdbdb" d="M 353.5,363.5 C 351.963,367.711 349.963,371.711 347.5,375.5C 347.043,376.298 346.376,376.631 345.5,376.5C 347.429,371.628 350.095,367.295 353.5,363.5 Z"/></g>
<g><path style="opacity:0.098" fill="#c7c7c7" d="M 178.5,373.5 C 178.573,375.027 177.906,376.027 176.5,376.5C 176.427,374.973 177.094,373.973 178.5,373.5 Z"/></g>
<g><path style="opacity:0.583" fill="#b9b9b9" d="M 64.5,375.5 C 101.33,376.498 138.33,376.832 175.5,376.5C 173.369,377.314 171.036,377.814 168.5,378C 133.458,378.82 98.4583,378.653 63.5,377.5C 63.3284,376.508 63.6618,375.842 64.5,375.5 Z"/></g>
<g><path style="opacity:0.536" fill="#b8b8b8" d="M 234.5,374.5 C 271.152,376.494 308.152,377.16 345.5,376.5C 336.629,377.192 327.629,377.859 318.5,378.5C 290.652,378.621 262.318,378.288 233.5,377.5C 233.263,376.209 233.596,375.209 234.5,374.5 Z"/></g>
</svg>
